<?xml version="1.0" encoding="utf-8"?>
<!-- Generator: Adobe Illustrator 16.0.0, SVG Export Plug-In . SVG Version: 6.00 Build 0)  -->
<!DOCTYPE svg PUBLIC "-//W3C//DTD SVG 1.1//EN" "http://www.w3.org/Graphics/SVG/1.1/DTD/svg11.dtd">
<svg version="1.1" id="Layer_1" xmlns="http://www.w3.org/2000/svg" xmlns:xlink="http://www.w3.org/1999/xlink" x="0px" y="0px"
	 width="536.408px" height="595.281px" viewBox="29.436 123.305 536.408 595.281"
	 enable-background="new 29.436 123.305 536.408 595.281" xml:space="preserve">
<path fill="#F6A230" d="M182.146,461.33L297.5,698.384l224.082-460.491c-149.39-52.672-309.714-48.814-448.166,0l98.412,202.233"/>
<path fill="#C66500" d="M553.193,173.478c-15.802-4.309-34.041-0.845-49.794-5.209c-16.844-4.668-31.508-18.458-48.64-21.961
	c-17.103-3.498-36.005,3.423-53.356,1.09c-17.281-2.321-33.68-13.993-51.172-15.156c-17.377-1.151-35.183,8.243-52.73,8.243h0.246
	c-17.549,0-35.354-9.396-52.73-8.243c-17.492,1.164-33.892,12.835-51.172,15.156c-17.352,2.333-36.255-4.586-53.356-1.09
	c-17.133,3.504-31.797,17.292-48.642,21.961c-15.75,4.364-33.992,0.9-49.793,5.209L73.405,237.9l0.013-0.009
	c138.454-48.814,298.777-52.672,448.167,0L553.193,173.478z"/>
<g>
	<circle fill="#D53349" cx="216.771" cy="301.96" r="54.216"/>
	<circle fill="#D53349" cx="297.493" cy="499.849" r="41.195"/>
</g>
<path fill="#FFE285" d="M333.161,331.718l-22.097,22.095c-11.386,11.387-11.386,29.849,0,41.234
	c6.357,6.356,16.665,6.356,23.022-0.001l5.946-5.948l22.508,22.507l28.411-28.413l-22.507-22.503l5.948-5.95
	c6.357-6.356,6.358-16.663,0-23.021C363.008,320.332,344.547,320.332,333.161,331.718z"/>
<g>
	<path fill="#53180F" d="M377.672,232.047c-28.883-3.733-56.524-5.707-79.938-5.707v17.679c22.668,0,49.526,1.923,77.671,5.563
		L377.672,232.047z"/>
	<path fill="#53180F" d="M565.844,167.767l-10.324-2.816c-8.904-2.429-18.063-2.664-26.924-2.89
		c-8.218-0.212-15.979-0.411-22.836-2.31c-6.868-1.903-13.629-5.731-20.788-9.783c-8.846-5.006-17.992-10.184-28.442-12.32
		c-3.904-0.799-8.061-1.187-12.706-1.187c-6.165,0-12.298,0.686-18.228,1.348c-5.707,0.638-11.099,1.241-16.295,1.241
		c-2.457,0-4.655-0.135-6.724-0.414c-7.039-0.945-14.254-3.816-21.89-6.857c-9.443-3.76-19.21-7.648-29.873-8.356
		c-1.174-0.078-2.386-0.118-3.602-0.118c-9.286,0-18.251,2.25-26.92,4.426c-7.979,2.002-15.517,3.894-22.671,3.916
		c-7.153-0.021-14.691-1.913-22.67-3.916c-8.67-2.176-17.636-4.426-26.922-4.426c-1.215,0-2.426,0.039-3.603,0.118
		c-10.661,0.709-20.427,4.597-29.871,8.357c-7.637,3.041-14.851,5.914-21.893,6.857c-2.066,0.278-4.267,0.414-6.723,0.414
		c-5.196,0-10.586-0.602-16.295-1.241c-5.93-0.662-12.061-1.347-18.226-1.347c-4.646,0-8.804,0.388-12.707,1.187
		c-10.451,2.138-19.597,7.313-28.442,12.319c-7.158,4.052-13.92,7.879-20.787,9.783c-6.855,1.9-14.617,2.097-22.835,2.31
		c-8.859,0.227-18.021,0.461-26.924,2.891l-10.29,2.807l36.019,74.012l4.527,9.268l0,0l93.896,192.957l15.897-7.736l-94.038-193.25
		c0.267-0.09,0.534-0.177,0.801-0.268c3.819-1.276,7.649-2.523,11.492-3.729c0.238-0.075,0.477-0.146,0.714-0.222
		c8.153-2.548,16.354-4.94,24.601-7.168c0.071-0.019,0.142-0.038,0.212-0.058c4.072-1.1,8.157-2.154,12.252-3.175
		c0.213-0.054,0.427-0.108,0.64-0.162c4.021-0.999,8.051-1.956,12.09-2.877c0.272-0.063,0.544-0.125,0.817-0.187
		c4.021-0.912,8.052-1.786,12.091-2.623c0.274-0.058,0.55-0.115,0.825-0.171c4.059-0.837,8.13-1.635,12.207-2.395
		c0.233-0.042,0.466-0.086,0.7-0.128c4.137-0.766,8.281-1.495,12.437-2.184c0.141-0.023,0.281-0.046,0.422-0.07
		c21.488-3.542,43.208-6.035,65.105-7.472c0.185-0.012,0.37-0.024,0.555-0.036c4.148-0.27,8.305-0.497,12.466-0.688
		c0.36-0.017,0.72-0.034,1.08-0.051c4.034-0.18,8.076-0.322,12.121-0.432c0.487-0.013,0.972-0.024,1.459-0.037
		c3.954-0.098,7.913-0.162,11.876-0.191c0.941-0.007,1.883-0.011,2.823-0.014c1.201-0.005,2.401-0.007,3.6-0.005
		c1.137,0.002,2.274,0.011,3.411,0.019c1.208,0.008,2.417,0.018,3.624,0.032c1.118,0.014,2.235,0.033,3.353,0.053
		c1.224,0.021,2.445,0.041,3.669,0.07c1.106,0.024,2.213,0.057,3.319,0.087c1.224,0.032,2.448,0.067,3.671,0.107
		c1.113,0.036,2.226,0.079,3.339,0.122c1.212,0.046,2.426,0.092,3.638,0.144c1.127,0.05,2.251,0.104,3.376,0.159
		c1.194,0.058,2.389,0.115,3.582,0.178c1.152,0.063,2.304,0.131,3.455,0.199c1.163,0.07,2.327,0.135,3.491,0.209
		c1.191,0.076,2.382,0.162,3.571,0.244c1.118,0.078,2.237,0.152,3.354,0.235c1.243,0.092,2.485,0.193,3.727,0.293
		c1.065,0.084,2.133,0.167,3.198,0.258c1.304,0.11,2.605,0.231,3.909,0.349c0.999,0.091,1.998,0.177,2.998,0.272
		c1.404,0.135,2.809,0.278,4.212,0.421c0.894,0.09,1.787,0.177,2.679,0.271c1.553,0.165,3.103,0.34,4.651,0.515
		c0.745,0.084,1.489,0.164,2.233,0.25c1.754,0.204,3.509,0.42,5.261,0.638c0.539,0.067,1.081,0.128,1.621,0.198
		c2.159,0.273,4.317,0.561,6.475,0.854c0.13,0.019,0.259,0.034,0.39,0.054c9.271,1.274,18.506,2.744,27.697,4.408
		c0.088,0.015,0.175,0.031,0.262,0.049c2.19,0.397,4.378,0.804,6.562,1.223c0.317,0.062,0.632,0.124,0.948,0.186
		c1.952,0.376,3.901,0.761,5.85,1.154c0.476,0.095,0.95,0.196,1.424,0.294c1.788,0.368,3.574,0.737,5.357,1.118
		c0.579,0.123,1.155,0.253,1.734,0.377c1.679,0.364,3.356,0.728,5.033,1.106c0.653,0.146,1.303,0.299,1.956,0.448
		c1.597,0.364,3.191,0.73,4.787,1.107c0.719,0.167,1.436,0.344,2.154,0.516c1.524,0.364,3.046,0.731,4.568,1.107
		c0.776,0.19,1.552,0.389,2.328,0.584c1.457,0.365,2.914,0.732,4.367,1.108c0.827,0.212,1.649,0.431,2.476,0.648
		c1.405,0.369,2.813,0.74,4.216,1.117c0.857,0.23,1.715,0.466,2.572,0.703c1.364,0.372,2.729,0.749,4.09,1.13
		c0.897,0.252,1.795,0.51,2.692,0.765c1.315,0.375,2.631,0.752,3.942,1.135c0.934,0.273,1.865,0.55,2.798,0.828
		c1.275,0.378,2.552,0.759,3.826,1.146c0.96,0.291,1.921,0.588,2.882,0.885c1.238,0.381,2.479,0.766,3.715,1.154
		c0.986,0.312,1.973,0.625,2.958,0.943c1.209,0.387,2.418,0.775,3.625,1.171c1.007,0.329,2.012,0.663,3.018,0.996
		c0.699,0.233,1.399,0.468,2.1,0.704l-7.698,15.817c-28.852-9.441-63.318-17.486-100.303-23.375l-2.779,17.458
		c35.096,5.589,67.776,13.141,95.271,21.97L297.5,678.179L190.094,457.458l-15.896,7.734l123.302,253.393l232.037-476.838
		L565.844,167.767z M67.103,179.734c8.925-0.229,18.151-0.466,27.104-2.946c8.961-2.483,17.001-7.034,24.775-11.434
		c8.003-4.529,15.562-8.808,23.275-10.386c2.726-0.557,5.723-0.828,9.165-0.828c5.18,0,10.563,0.602,16.263,1.238
		c5.938,0.664,12.078,1.351,18.259,1.351c3.255,0,6.223-0.186,9.077-0.569c9.201-1.236,17.78-4.651,26.078-7.955
		c8.549-3.404,16.624-6.618,24.502-7.144c0.786-0.052,1.604-0.078,2.432-0.078c7.102,0,14.638,1.891,22.615,3.894
		c8.637,2.167,17.565,4.408,26.852,4.447h0.246c9.287-0.039,18.216-2.281,26.851-4.447c7.979-2.002,15.516-3.894,22.616-3.894
		c0.828,0,1.646,0.027,2.429,0.078c7.883,0.524,15.958,3.741,24.506,7.144c8.298,3.303,16.876,6.718,26.076,7.955
		c2.855,0.382,5.825,0.569,9.079,0.569c6.181,0,12.319-0.686,18.257-1.351c5.699-0.636,11.084-1.238,16.264-1.238
		c3.442,0,6.44,0.27,9.165,0.828c7.714,1.578,15.273,5.856,23.276,10.386c7.774,4.4,15.813,8.95,24.774,11.434
		c8.952,2.48,18.18,2.719,27.104,2.946c4.093,0.104,8.069,0.206,11.88,0.516l-22.934,46.731c-1.803-0.613-3.61-1.211-5.418-1.808
		c-0.372-0.122-0.744-0.251-1.116-0.372c-2.277-0.749-4.559-1.482-6.843-2.206c-0.545-0.172-1.092-0.338-1.638-0.509
		c-1.732-0.544-3.465-1.086-5.203-1.615c-0.797-0.244-1.6-0.479-2.397-0.719c-1.489-0.447-2.979-0.896-4.471-1.334
		c-0.877-0.258-1.756-0.508-2.635-0.762c-1.419-0.41-2.835-0.82-4.256-1.22c-0.924-0.26-1.85-0.514-2.772-0.768
		c-1.377-0.382-2.752-0.763-4.13-1.135c-0.951-0.258-1.903-0.509-2.854-0.762c-1.36-0.362-2.721-0.72-4.082-1.074
		c-0.959-0.249-1.921-0.492-2.884-0.737c-1.355-0.344-2.712-0.687-4.068-1.024c-0.969-0.239-1.938-0.476-2.907-0.71
		c-1.357-0.331-2.717-0.658-4.078-0.979c-0.964-0.228-1.928-0.452-2.895-0.675c-1.372-0.318-2.743-0.632-4.118-0.942
		c-0.952-0.215-1.904-0.427-2.857-0.637c-1.398-0.31-2.8-0.613-4.199-0.912c-0.93-0.199-1.858-0.396-2.787-0.592
		c-1.43-0.299-2.861-0.594-4.294-0.884c-0.905-0.184-1.811-0.367-2.717-0.546c-1.468-0.291-2.936-0.577-4.405-0.858
		c-0.872-0.168-1.744-0.336-2.616-0.5c-1.515-0.283-3.031-0.562-4.547-0.835c-0.834-0.15-1.664-0.303-2.498-0.449
		c-1.583-0.279-3.17-0.551-4.756-0.821c-0.764-0.128-1.526-0.26-2.291-0.387c-1.694-0.281-3.393-0.552-5.089-0.821
		c-0.659-0.104-1.315-0.211-1.975-0.315c-1.869-0.29-3.737-0.569-5.606-0.843c-0.493-0.072-0.984-0.147-1.477-0.22
		c-2.212-0.32-4.426-0.625-6.641-0.923c-0.152-0.021-0.302-0.042-0.453-0.064c-9.647-1.288-19.335-2.372-29.056-3.249
		c-0.346-0.03-0.69-0.059-1.035-0.089c-2.049-0.181-4.097-0.356-6.148-0.519c-0.529-0.044-1.062-0.081-1.593-0.122
		c-1.867-0.145-3.733-0.284-5.603-0.414c-0.641-0.045-1.285-0.084-1.927-0.127c-1.757-0.116-3.516-0.229-5.275-0.331
		c-0.722-0.042-1.444-0.08-2.165-0.121c-1.681-0.093-3.36-0.183-5.042-0.264c-0.787-0.039-1.574-0.073-2.359-0.108
		c-1.615-0.072-3.229-0.141-4.844-0.201c-0.846-0.031-1.69-0.062-2.536-0.089c-1.557-0.054-3.114-0.103-4.674-0.146
		c-0.896-0.024-1.792-0.046-2.687-0.068c-1.505-0.034-3.008-0.066-4.514-0.091c-0.951-0.018-1.902-0.03-2.854-0.044
		c-1.439-0.019-2.879-0.032-4.319-0.041c-1.017-0.007-2.035-0.013-3.054-0.015c-0.565-0.002-1.128-0.009-1.692-0.009
		c-0.805,0-1.608,0.009-2.412,0.012c-0.66,0.002-1.319-0.002-1.979,0.002c-0.426,0.002-0.851,0.012-1.275,0.015
		c-1.31,0.01-2.62,0.025-3.929,0.045c-1.022,0.014-2.043,0.028-3.063,0.046c-1.44,0.024-2.879,0.059-4.317,0.093
		c-0.894,0.021-1.79,0.042-2.685,0.069c-1.559,0.044-3.117,0.094-4.674,0.149c-0.779,0.025-1.559,0.053-2.338,0.081
		c-1.667,0.065-3.335,0.136-5,0.212c-0.673,0.029-1.347,0.059-2.02,0.09c-1.773,0.085-3.546,0.179-5.317,0.278
		c-0.566,0.03-1.133,0.062-1.699,0.094c-1.876,0.109-3.75,0.228-5.624,0.353c-0.466,0.03-0.931,0.061-1.395,0.092
		c-1.979,0.135-3.956,0.28-5.932,0.433c-0.359,0.026-0.72,0.055-1.081,0.081c-2.074,0.164-4.147,0.337-6.22,0.519
		c-0.266,0.023-0.532,0.045-0.799,0.069c-2.162,0.193-4.323,0.396-6.482,0.609c-0.178,0.018-0.357,0.033-0.535,0.053
		c-2.247,0.222-4.491,0.457-6.735,0.702c-0.092,0.009-0.185,0.019-0.276,0.028c-2.33,0.256-4.658,0.522-6.983,0.801
		c-0.008,0.001-0.016,0.002-0.024,0.003c-35.271,4.229-70.013,11.173-104.021,20.804c-0.088,0.024-0.177,0.051-0.265,0.076
		c-2.149,0.61-4.294,1.229-6.437,1.86c-0.604,0.177-1.204,0.362-1.807,0.541c-1.628,0.484-3.257,0.967-4.881,1.465
		c-0.859,0.263-1.717,0.534-2.576,0.8c-1.365,0.423-2.731,0.845-4.096,1.278c-0.984,0.313-1.967,0.632-2.951,0.951
		c-1.237,0.399-2.479,0.794-3.716,1.203c-1.046,0.343-2.09,0.697-3.137,1.046c-1.045,0.349-2.093,0.693-3.139,1.048l-22.74-46.721
		C59.005,179.942,62.995,179.839,67.103,179.734z"/>
	<path fill="#53180F" d="M216.773,238.907c-34.77,0-63.056,28.286-63.056,63.056c0,34.769,28.286,63.055,63.056,63.055
		s63.056-28.286,63.056-63.055C279.828,267.193,251.542,238.907,216.773,238.907z M216.773,347.34
		c-25.021,0-45.376-20.356-45.376-45.376s20.355-45.376,45.376-45.376s45.376,20.357,45.376,45.376S241.794,347.34,216.773,347.34z"
		/>
	<path fill="#53180F" d="M247.466,499.847c0,27.59,22.444,50.035,50.034,50.035s50.035-22.445,50.035-50.035
		s-22.445-50.035-50.035-50.035C269.91,449.814,247.466,472.259,247.466,499.847z M297.499,467.494
		c17.841,0,32.355,14.514,32.355,32.355c0,17.84-14.515,32.355-32.355,32.355s-32.355-14.516-32.355-32.355
		C265.145,482.009,279.659,467.494,297.499,467.494z"/>
	<path fill="#53180F" d="M304.815,401.301c4.743,4.743,11.051,7.355,17.76,7.355c6.565,0,12.748-2.502,17.456-7.056l22.51,22.509
		l40.912-40.916l-22.51-22.508c9.493-9.816,9.393-25.525-0.298-35.217c-7.178-7.178-16.72-11.13-26.867-11.13
		c-10.148,0-19.69,3.953-26.868,11.129l-22.097,22.096C290,362.378,290,386.485,304.815,401.301z M317.315,360.065l22.096-22.095
		c3.838-3.839,8.939-5.952,14.366-5.952c5.426,0,10.529,2.114,14.364,5.952c2.901,2.899,2.901,7.62,0,10.521l-12.198,12.201
		l22.507,22.503l-15.911,15.912L340.031,376.6l-12.197,12.199c-1.405,1.404-3.273,2.179-5.262,2.179
		c-1.986,0-3.855-0.773-5.259-2.176C309.393,380.877,309.393,367.987,317.315,360.065z"/>
</g>
</svg>
